<svg width="144" height="23" viewBox="0 0 144 23" fill="none" xmlns="http://www.w3.org/2000/svg">
<g clip-path="url(#clip0_1_360)">
<path fill-rule="evenodd" clip-rule="evenodd" d="M2 5.5H14L12 11.5L14 17.5H2L4 11.5L2 5.5Z" fill="#0D141C"/>
</g>
<path d="M44.6882 9.49219H41.8885C41.8374 9.12997 41.733 8.80824 41.5753 8.52699C41.4176 8.24148 41.2152 7.99858 40.968 7.7983C40.7209 7.59801 40.4354 7.4446 40.1115 7.33807C39.7919 7.23153 39.4446 7.17827 39.0696 7.17827C38.392 7.17827 37.8018 7.34659 37.299 7.68324C36.7962 8.01562 36.4063 8.50142 36.1293 9.14062C35.8523 9.77557 35.7138 10.5469 35.7138 11.4545C35.7138 12.3878 35.8523 13.1719 36.1293 13.8068C36.4105 14.4418 36.8026 14.9212 37.3054 15.245C37.8082 15.5689 38.3899 15.7308 39.0504 15.7308C39.4212 15.7308 39.7642 15.6818 40.0795 15.5838C40.3991 15.4858 40.6825 15.343 40.9297 15.1555C41.1768 14.9638 41.3814 14.7315 41.5433 14.4588C41.7095 14.1861 41.8246 13.875 41.8885 13.5256L44.6882 13.5384C44.6158 14.1392 44.4347 14.7188 44.1449 15.277C43.8594 15.831 43.4737 16.3274 42.9879 16.7663C42.5064 17.201 41.9311 17.5462 41.2621 17.8018C40.5973 18.0533 39.8452 18.179 39.0057 18.179C37.8381 18.179 36.794 17.9148 35.8736 17.3864C34.9574 16.858 34.233 16.093 33.7003 15.0916C33.1719 14.0902 32.9077 12.8778 32.9077 11.4545C32.9077 10.027 33.1761 8.8125 33.7131 7.81108C34.25 6.80966 34.9787 6.04687 35.8991 5.52273C36.8196 4.99432 37.8551 4.73011 39.0057 4.73011C39.7642 4.73011 40.4673 4.83665 41.1151 5.04972C41.767 5.26278 42.3445 5.57386 42.8473 5.98295C43.3501 6.38778 43.7592 6.88423 44.0746 7.4723C44.3942 8.06037 44.5987 8.73366 44.6882 9.49219ZM51.0579 18.1918C50.065 18.1918 49.2063 17.9808 48.4819 17.5589C47.7617 17.1328 47.2056 16.5405 46.8136 15.782C46.4215 15.0192 46.2255 14.1349 46.2255 13.1293C46.2255 12.1151 46.4215 11.2287 46.8136 10.4702C47.2056 9.70739 47.7617 9.11506 48.4819 8.69318C49.2063 8.26705 50.065 8.05398 51.0579 8.05398C52.0508 8.05398 52.9073 8.26705 53.6275 8.69318C54.3519 9.11506 54.9102 9.70739 55.3022 10.4702C55.6942 11.2287 55.8903 12.1151 55.8903 13.1293C55.8903 14.1349 55.6942 15.0192 55.3022 15.782C54.9102 16.5405 54.3519 17.1328 53.6275 17.5589C52.9073 17.9808 52.0508 18.1918 51.0579 18.1918ZM51.0707 16.0824C51.5224 16.0824 51.8995 15.9545 52.2021 15.6989C52.5046 15.4389 52.7326 15.0852 52.886 14.6378C53.0437 14.1903 53.1225 13.6811 53.1225 13.1101C53.1225 12.5391 53.0437 12.0298 52.886 11.5824C52.7326 11.1349 52.5046 10.7812 52.2021 10.5213C51.8995 10.2614 51.5224 10.1314 51.0707 10.1314C50.6147 10.1314 50.2312 10.2614 49.9201 10.5213C49.6133 10.7812 49.381 11.1349 49.2234 11.5824C49.07 12.0298 48.9933 12.5391 48.9933 13.1101C48.9933 13.6811 49.07 14.1903 49.2234 14.6378C49.381 15.0852 49.6133 15.4389 49.9201 15.6989C50.2312 15.9545 50.6147 16.0824 51.0707 16.0824ZM60.3839 12.3239V18H57.6609V8.18182H60.256V9.91406H60.3711C60.5884 9.34304 60.9528 8.89133 61.4641 8.55895C61.9755 8.2223 62.5955 8.05398 63.3242 8.05398C64.006 8.05398 64.6005 8.20312 65.1076 8.50142C65.6147 8.79972 66.0089 9.22585 66.2901 9.77983C66.5714 10.3295 66.712 10.9858 66.712 11.7486V18H63.989V12.2344C63.9933 11.6335 63.8398 11.1648 63.5288 10.8281C63.2177 10.4872 62.7894 10.3168 62.244 10.3168C61.8775 10.3168 61.5536 10.3956 61.2724 10.5533C60.9954 10.7109 60.7781 10.9411 60.6204 11.2436C60.467 11.5419 60.3881 11.902 60.3839 12.3239ZM71.5811 12.3239V18H68.8581V8.18182H71.4533V9.91406H71.5684C71.7857 9.34304 72.15 8.89133 72.6614 8.55895C73.1728 8.2223 73.7928 8.05398 74.5215 8.05398C75.2033 8.05398 75.7978 8.20312 76.3049 8.50142C76.812 8.79972 77.2061 9.22585 77.4874 9.77983C77.7686 10.3295 77.9093 10.9858 77.9093 11.7486V18H75.1863V12.2344C75.1905 11.6335 75.0371 11.1648 74.726 10.8281C74.415 10.4872 73.9867 10.3168 73.4412 10.3168C73.0748 10.3168 72.7509 10.3956 72.4696 10.5533C72.1926 10.7109 71.9753 10.9411 71.8176 11.2436C71.6642 11.5419 71.5854 11.902 71.5811 12.3239ZM84.5298 18.1918C83.5199 18.1918 82.6506 17.9872 81.9219 17.5781C81.1974 17.1648 80.6392 16.581 80.2472 15.8267C79.8551 15.0682 79.6591 14.1712 79.6591 13.1357C79.6591 12.1257 79.8551 11.2393 80.2472 10.4766C80.6392 9.71378 81.1911 9.11932 81.9027 8.69318C82.6186 8.26705 83.4581 8.05398 84.4212 8.05398C85.0689 8.05398 85.6719 8.15838 86.2301 8.36719C86.7926 8.57173 87.2827 8.88068 87.7003 9.29403C88.1222 9.70739 88.4503 10.2273 88.6847 10.8537C88.919 11.4759 89.0362 12.2045 89.0362 13.0398V13.7876H80.7457V12.1001H86.473C86.473 11.7081 86.3878 11.3608 86.2173 11.0582C86.0469 10.7557 85.8104 10.5192 85.5078 10.3487C85.2095 10.174 84.8622 10.0866 84.4659 10.0866C84.0526 10.0866 83.6861 10.1825 83.3665 10.3743C83.0511 10.5618 82.804 10.8153 82.625 11.1349C82.446 11.4503 82.3544 11.8018 82.3501 12.1896V13.794C82.3501 14.2798 82.4396 14.6996 82.6186 15.0533C82.8018 15.407 83.0597 15.6797 83.392 15.8714C83.7244 16.0632 84.1186 16.1591 84.5746 16.1591C84.8771 16.1591 85.1541 16.1165 85.4055 16.0312C85.657 15.946 85.8722 15.8182 86.0511 15.6477C86.2301 15.4773 86.3665 15.2685 86.4602 15.0213L88.9787 15.1875C88.8509 15.7926 88.5888 16.321 88.1925 16.7727C87.8004 17.2202 87.2933 17.5696 86.6712 17.821C86.0533 18.0682 85.3395 18.1918 84.5298 18.1918ZM95.2493 18.1918C94.2436 18.1918 93.3786 17.9787 92.6541 17.5526C91.9339 17.1222 91.38 16.5256 90.9922 15.7628C90.6087 15 90.4169 14.1222 90.4169 13.1293C90.4169 12.1236 90.6108 11.2415 90.9986 10.483C91.3906 9.72017 91.9467 9.12571 92.6669 8.69957C93.3871 8.26918 94.2436 8.05398 95.2365 8.05398C96.093 8.05398 96.843 8.20952 97.4865 8.5206C98.13 8.83168 98.6392 9.26847 99.0142 9.83097C99.3892 10.3935 99.5959 11.054 99.6342 11.8125H97.0646C96.9922 11.3224 96.8004 10.9283 96.4893 10.63C96.1825 10.3274 95.7798 10.1761 95.2812 10.1761C94.8594 10.1761 94.4908 10.2912 94.1754 10.5213C93.8643 10.7472 93.6214 11.0774 93.4467 11.5121C93.272 11.9467 93.1847 12.473 93.1847 13.0909C93.1847 13.7173 93.2699 14.25 93.4403 14.6889C93.6151 15.1278 93.8601 15.4624 94.1754 15.6925C94.4908 15.9226 94.8594 16.0376 95.2812 16.0376C95.5923 16.0376 95.8714 15.9737 96.1186 15.8459C96.37 15.718 96.5767 15.5327 96.7386 15.2898C96.9048 15.0426 97.0135 14.7464 97.0646 14.4013H99.6342C99.5916 15.1513 99.3871 15.8118 99.0206 16.3828C98.6584 16.9496 98.1577 17.3928 97.5185 17.7124C96.8793 18.032 96.1229 18.1918 95.2493 18.1918ZM106.6 8.18182V10.2273H100.687V8.18182H106.6ZM102.03 5.82955H104.753V14.983C104.753 15.2344 104.791 15.4304 104.868 15.571C104.944 15.7074 105.051 15.8033 105.187 15.8587C105.328 15.9141 105.49 15.9418 105.673 15.9418C105.801 15.9418 105.929 15.9311 106.057 15.9098C106.184 15.8842 106.282 15.8651 106.351 15.8523L106.779 17.8786C106.643 17.9212 106.451 17.9702 106.204 18.0256C105.956 18.0852 105.656 18.1214 105.302 18.1342C104.646 18.1598 104.071 18.0724 103.577 17.8722C103.086 17.6719 102.705 17.3608 102.432 16.9389C102.16 16.517 102.025 15.9844 102.03 15.3409V5.82955ZM108.636 18V4.90909H111.404V10.3104H117.022V4.90909H119.784V18H117.022V12.5923H111.404V18H108.636ZM128.311 13.8196V8.18182H131.034V18H128.419V16.2166H128.317C128.095 16.7919 127.727 17.2543 127.211 17.6037C126.7 17.9531 126.075 18.1278 125.338 18.1278C124.682 18.1278 124.105 17.9787 123.606 17.6804C123.107 17.3821 122.718 16.9581 122.436 16.4084C122.159 15.8587 122.019 15.2003 122.014 14.4332V8.18182H124.737V13.9474C124.742 14.527 124.897 14.9851 125.204 15.3217C125.511 15.6584 125.922 15.8267 126.438 15.8267C126.766 15.8267 127.073 15.7521 127.358 15.603C127.644 15.4496 127.874 15.2237 128.048 14.9254C128.227 14.6271 128.315 14.2585 128.311 13.8196ZM133.263 18V4.90909H135.986V9.83097H136.069C136.188 9.56676 136.361 9.2983 136.587 9.02557C136.817 8.74858 137.115 8.51847 137.482 8.33523C137.852 8.14773 138.313 8.05398 138.862 8.05398C139.578 8.05398 140.239 8.24148 140.844 8.61648C141.449 8.98722 141.933 9.54759 142.295 10.2976C142.657 11.0433 142.838 11.9787 142.838 13.1037C142.838 14.1989 142.661 15.1236 142.308 15.8778C141.958 16.6278 141.481 17.1967 140.876 17.5845C140.275 17.968 139.602 18.1598 138.856 18.1598C138.327 18.1598 137.878 18.0724 137.507 17.8977C137.141 17.723 136.84 17.5036 136.606 17.2393C136.371 16.9709 136.192 16.7003 136.069 16.4276H135.947V18H133.263ZM135.928 13.0909C135.928 13.6747 136.009 14.1839 136.171 14.6186C136.333 15.0533 136.567 15.392 136.874 15.6349C137.181 15.8736 137.554 15.9929 137.993 15.9929C138.436 15.9929 138.811 15.8714 139.118 15.6286C139.425 15.3814 139.657 15.0405 139.815 14.6058C139.977 14.1669 140.058 13.6619 140.058 13.0909C140.058 12.5241 139.979 12.0256 139.821 11.5952C139.663 11.1648 139.431 10.8281 139.124 10.5852C138.817 10.3423 138.44 10.2209 137.993 10.2209C137.55 10.2209 137.175 10.3381 136.868 10.5724C136.565 10.8068 136.333 11.1392 136.171 11.5696C136.009 12 135.928 12.5071 135.928 13.0909Z" fill="#0D141C"/>
<defs>
<clipPath id="clip0_1_360">
<rect width="16" height="16" fill="white" transform="translate(0 3.5)"/>
</clipPath>
</defs>
</svg>
